<?xml version="1.0" encoding="UTF-8"?>
<svg xmlns="http://www.w3.org/2000/svg" width="16" height="16" viewBox="0 0 16 16">
  <g fill="#2e3436">
    <path d="M8 8 C8 5 6.6 2.4 8.7 1 C10.3 2.2 9.4 5.2 8 8 Z"/>
    <path d="M8 8 C8 5 6.6 2.4 8.7 1 C10.3 2.2 9.4 5.2 8 8 Z" transform="rotate(90 8 8)"/>
    <path d="M8 8 C8 5 6.6 2.4 8.7 1 C10.3 2.2 9.4 5.2 8 8 Z" transform="rotate(180 8 8)"/>
    <path d="M8 8 C8 5 6.6 2.4 8.7 1 C10.3 2.2 9.4 5.2 8 8 Z" transform="rotate(270 8 8)"/>
    <circle cx="8" cy="8" r="1.6"/>
  </g>
</svg>
